:SAMPLES-PER-SECOND 24
:FULLY-SPECIFIED
:DEGREES
228
root  2.64119 39.3029 38.531 170.139 -73.5824 -176.136
RightUpLeg  -9.36794 -10.7 -19.5357
RightLeg  4.38754 -6.4819 -0.728373
RightFoot  -9.81383 -0.0273606 -2.78056
RightToes  -1.74623e-010 0 -2.59999e-017
Spine  7.02726 -2.67719 -9.60526
Spine1  8.12016 -5.33452 7.41493
HEad  -14.1004 -40.8728 12.7309
LeftShoulder1  1.62018 -2.83937 -19.0111
LeftArm  19.8054 -18.8947 -51.2941
LeftForeArm  58.9666 -78.8077 -78.7036
LeftHand  0.512765 10.3234 12.7443
RightShoulder  3.03557 5.33763 28.3907
RightArm  -7.59602 -17.4899 18.3328
RightForeArm  -7.57104 11.496 11.5495
RightHand  -1.01683 -0.474619 -23.8172
LeftUpLeg  2.62386 22.132 11.4216
LeftLeg  20.0487 15.8359 5.68956
LeftFoot  -8.93918 0.230193 -8.37929
LeftToes  -6.27559e-011 -2.10356e-011 8.24929e-012
229
root  2.58648 38.9975 38.4502 171.461 -71.4414 -177.812
RightUpLeg  -10.6804 -11.0865 -19.2127
RightLeg  4.85483 -6.57757 -0.501762
RightFoot  -9.28995 -0.0236784 -2.18734
RightToes  -1.74623e-010 0 -2.59999e-017
Spine  7.11539 -2.26229 -8.93087
Spine1  8.21209 -4.60932 6.2326
HEad  -15.9719 -41.1812 13.7396
LeftShoulder1  1.5013 -2.60149 -17.9854
LeftArm  22.576 -26.7919 -56.0173
LeftForeArm  50.4842 -78.3128 -69.0122
LeftHand  0.462188 9.86874 12.7018
RightShoulder  3.17767 5.53204 29.245
RightArm  -22.3043 -21.0826 19.3389
RightForeArm  -6.50671 5.38049 11.757
RightHand  -1.21063 -0.745224 -29.7994
LeftUpLeg  2.28704 26.662 12.2892
LeftLeg  23.1091 13.095 6.38839
LeftFoot  -10.0616 0.157644 -8.71467
LeftToes  -6.27559e-011 -2.10356e-011 8.24929e-012
230
root  2.44704 38.8314 38.0253 173.68 -70.5239 179.441
RightUpLeg  -12.5786 -11.7892 -19.3127
RightLeg  10.5325 -4.36841 -1.05853
RightFoot  -4.14952 0.0124727 -0.775552
RightToes  -1.74623e-010 0 -2.59999e-017
Spine  6.59553 -2.19357 -10.0823
Spine1  9.27222 -4.69463 6.10193
HEad  -17.7683 -40.8048 14.539
LeftShoulder1  1.46959 -2.50083 -17.8595
LeftArm  25.161 -31.916 -60.1178
LeftForeArm  47.052 -78.0113 -65.32
LeftHand  0.407043 9.1336 13.3879
RightShoulder  3.39913 5.77872 30.7229
RightArm  -26.8607 -25.2649 22.5454
RightForeArm  -11.0461 5.09772 10.8921
RightHand  -1.14741 -1.27723 -31.7975
LeftUpLeg  3.31248 26.9707 12.6277
LeftLeg  23.7243 13.3962 6.59459
LeftFoot  -10.2738 0.150913 -9.56016
LeftToes  -6.27559e-011 -2.10356e-011 8.24929e-012
231
root  2.20463 38.851 37.2938 175.314 -72.4037 177.563
RightUpLeg  -12.6991 -11.9614 -20.0601
RightLeg  16.3986 -0.1546 -0.253293
RightFoot  1.47845 -0.135999 1.32008
RightToes  -1.74623e-010 0 -2.59999e-017
Spine  6.12868 -3.30522 -12.473
Spine1  9.73678 -6.50052 7.70158
HEad  -17.9346 -39.908 14.1165
LeftShoulder1  1.47704 -2.50885 -17.9582
LeftArm  27.1566 -32.4998 -63.2902
LeftForeArm  48.4262 -78.148 -67.0282
LeftHand  0.373731 8.77214 13.627
RightShoulder  3.59057 5.92671 32.1935
RightArm  -26.5597 -28.9701 26.7736
RightForeArm  -10.3684 4.99909 11.2207
RightHand  -0.916853 -1.53487 -27.303
LeftUpLeg  4.34943 22.8334 12.5904
LeftLeg  22.2028 15.5433 6.14622
LeftFoot  -9.21806 0.247729 -10.3633
LeftToes  -6.27559e-011 -2.10356e-011 8.24929e-012
232
root  1.90588 38.9071 36.3564 176.426 -75.3775 176.96
RightUpLeg  -12.2265 -10.0163 -20.2254
RightLeg  21.5675 2.9665 1.08907
RightFoot  3.87019 -0.0364537 0.482768
RightToes  -1.74623e-010 0 -2.59999e-017
Spine  5.30449 -5.01772 -14.1586
Spine1  9.47028 -8.73 9.14828
HEad  -16.9296 -39.0555 13.1491
LeftShoulder1  1.45759 -2.48907 -17.6943
LeftArm  28.8644 -30.0285 -65.7878
LeftForeArm  53.0491 -78.4893 -71.3035
LeftHand  0.317013 8.50113 12.744
RightShoulder  3.70397 6.01056 33.0515
RightArm  -23.0217 -32.6545 31.6801
RightForeArm  -1.0786 5.18682 11.9479
RightHand  -0.610009 -1.2483 -17.0769
LeftUpLeg  4.71095 17.4437 13.0194
LeftLeg  20.0396 17.7223 4.99861
LeftFoot  -8.04042 0.390197 -11.8257
LeftToes  -6.27559e-011 -2.10356e-011 8.24929e-012
233
root  1.63864 38.7374 35.2456 179.841 -77.4461 174.034
RightUpLeg  -12.4803 -6.32024 -20.3131
RightLeg  26.9064 4.03605 2.0078
RightFoot  3.59665 -0.195535 1.67851
RightToes  -1.74623e-010 0 -2.59999e-017
Spine  4.27944 -5.99289 -16.349
Spine1  9.66575 -10.236 10.5947
HEad  -17.0973 -38.5175 12.9514
LeftShoulder1  1.42885 -2.37167 -17.6903
LeftArm  30.7389 -27.7999 -67.2146
LeftForeArm  59.6932 -78.8455 -76.6774
LeftHand  0.249148 8.18126 11.4457
RightShoulder  3.86746 6.1639 34.1188
RightArm  -17.438 -34.9063 35.5715
RightForeArm  12.1931 7.08323 11.8609
RightHand  -0.109342 -0.749467 -2.6582
LeftUpLeg  4.53482 14.4405 13.6273
LeftLeg  19.4501 18.4288 4.66588
LeftFoot  -7.38876 0.513477 -13.5507
LeftToes  -6.27559e-011 -2.10356e-011 8.24929e-012
234
root  1.50598 38.2737 34.0381 -176.13 -78.9867 169.511
RightUpLeg  -11.8658 -3.29166 -20.3323
RightLeg  30.6665 3.49908 2.00816
RightFoot  0.565415 -0.940253 9.22269
RightToes  -1.74623e-010 0 -2.59999e-017
Spine  4.99644 -6.04102 -19.2865
Spine1  9.7171 -11.3058 13.1622
HEad  -18.9014 -38.1772 13.3924
LeftShoulder1  1.45606 -2.3958 -18.0811
LeftArm  31.9628 -26.2911 -66.8149
LeftForeArm  68.1705 -79.1298 -84.0733
LeftHand  0.152144 7.63405 9.28611
RightShoulder  4.07022 6.3317 35.4805
RightArm  -12.3355 -34.7585 37.4692
RightForeArm  19.3709 9.7924 10.9994
RightHand  0.443394 -0.847333 11.8257
LeftUpLeg  3.85911 16.2162 15.2412
LeftLeg  21.7348 14.2187 5.06186
LeftFoot  -7.95307 0.493406 -15.0336
LeftToes  -6.27559e-011 -2.10356e-011 8.24929e-012
235
root  1.50769 37.5733 32.9375 -176.474 -80.5526 168.701
RightUpLeg  -10.2723 -3.01799 -19.4222
RightLeg  33.0763 2.8159 1.71754
RightFoot  -6.27656 -0.710451 15.017
RightToes  -1.74623e-010 0 -2.59999e-017
Spine  7.18852 -5.91371 -19.9665
Spine1  9.72138 -11.9915 14.6869
HEad  -21.7797 -38.0053 14.5197
LeftShoulder1  1.50115 -2.56048 -18.1627
LeftArm  32.0014 -25.2894 -65.0276
LeftForeArm  73.951 -79.1803 -90.1161
LeftHand  0.0359362 6.73573 5.60796
RightShoulder  4.13366 6.36383 35.9784
RightArm  -9.85929 -32.7398 38.7007
RightForeArm  16.5562 11.9115 10.3425
RightHand  0.294163 -3.52315 18.3923
LeftUpLeg  2.10968 17.8073 17.8598
LeftLeg  27.0243 9.48982 5.68564
LeftFoot  -9.58154 0.30853 -16.3113
LeftToes  -6.27559e-011 -2.10356e-011 8.24929e-012
236
root  1.55568 36.7658 32.1208 -179.717 -80.2694 171.068
RightUpLeg  -10.9392 -6.30673 -18.7273
RightLeg  37.6807 5.41903 4.23114
RightFoot  -13.0702 0.0919121 12.9454
RightToes  -1.74623e-010 0 -2.59999e-017
Spine  8.17626 -5.71445 -17.7507
Spine1  11.3409 -11.5964 12.9997
HEad  -25.7485 -37.8364 16.5336
LeftShoulder1  1.51655 -2.61282 -18.2071
LeftArm  31.2509 -25.312 -62.8981
LeftForeArm  70.2468 -79.1311 -87.2257
LeftHand  -0.00253105 6.5494 3.10502
RightShoulder  4.08213 6.29239 35.7625
RightArm  -10.1219 -27.575 38.0254
RightForeArm  13.9928 11.4625 10.6832
RightHand  0.264394 -2.88056 13.0662
LeftUpLeg  0.294073 16.6025 20.0661
LeftLeg  33.0827 9.46374 6.96148
LeftFoot  -11.1877 0.0900577 -16.6367
LeftToes  -6.27559e-011 -2.10356e-011 8.24929e-012
237
root  1.52155 36.2078 31.5977 179.666 -76.9158 171.08
RightUpLeg  -13.7047 -9.22167 -19.0355
RightLeg  43.3115 9.49647 9.19157
RightFoot  -15.4897 0.253047 9.8733
RightToes  -1.74623e-010 0 -2.59999e-017
Spine  7.68461 -5.07965 -15.5728
Spine1  13.7041 -10.3401 10.1534
HEad  -29.0247 -37.1082 17.2987
LeftShoulder1  1.61069 -2.74041 -19.2851
LeftArm  29.2029 -23.4699 -60.1054
LeftForeArm  60.9534 -78.9002 -77.7986
LeftHand  0.0840325 7.82557 5.63885
RightShoulder  3.97932 6.18472 35.1753
RightArm  -13.2707 -18.9737 34.5904
RightForeArm  16.4819 8.58546 11.3709
RightHand  0.00354161 -0.401946 0.134478
LeftUpLeg  1.24497 17.5968 21.4399
LeftLeg  35.9143 10.0419 8.10784
LeftFoot  -12.5885 -0.116373 -17.4652
LeftToes  -6.27559e-011 -2.10356e-011 8.24929e-012
